<svg version="1" xmlns="http://www.w3.org/2000/svg" width="2628" height="2628" viewBox="0 0 1971.000000 1971.000000"><path d="M65 985.5V1971h1840V0H65v985.5zm1839 0V1970H66V1h1838v984.5z"/><path d="M524 282.5V390h216V175H524v107.5zM758 282.5V390h216V175H758v107.5zM985 282.5V390h215V175H985v107.5zM1210 282.5V390h216V175h-216v107.5zM1425 504.5V612h215V397h-215v107.5zM312 506.5V614h216V399H312v107.5zM1425 728.5V836h215V621h-215v107.5zM312.5 628.2c-.3.7-.4 49.2-.3 107.8l.3 106.5 107.8.3 107.7.2V627H420.5c-85.1 0-107.7.3-108 1.2zM1425 962.5V1070h215V855h-215v107.5zM312 963.5V1071h216V856H312v107.5zM1202.7 856.7c-.4.3-.7 48.9-.7 108V1072h216V856h-107.3c-59.1 0-107.7.3-108 .7zM536 964.5V1072h216V857H536v107.5zM758 964.5V1072h216V857H758v107.5zM983 964.5V1072h215V857H983v107.5zM312 1186.5V1294h215v-215H312v107.5zM1425 1186.5V1294h215v-215h-215v107.5zM1424.5 1305.2c-.3.7-.4 49.2-.3 107.8l.3 106.5 107.8.3 107.7.2v-216h-107.5c-85.1 0-107.7.3-108 1.2zM310 1412.5V1520h216v-215H310v107.5zM310.7 1530.7c-.4.3-.7 48.9-.7 108V1746h216l-.2-107.8-.3-107.7-107.1-.3c-58.9-.1-107.4.1-107.7.5zM1425 1638v108h215v-216h-215v108z"/></svg>